<svg width="32" height="32" viewBox="0 0 32 32" fill="none" xmlns="http://www.w3.org/2000/svg">
<path fill-rule="evenodd" clip-rule="evenodd" d="M26 25.9628H21.815V19.4128C21.815 17.8528 21.788 15.8428 19.64 15.8428C17.46 15.8428 17.13 17.5428 17.13 19.3028V25.9628H12.948V12.4948H16.96V14.3348H17.018C17.576 13.2768 18.942 12.1608 20.978 12.1608C25.218 12.1608 26 14.9508 26 18.5778V25.9638V25.9628ZM8.22999 10.6548C7.58618 10.6548 6.96873 10.3991 6.51349 9.94381C6.05824 9.48856 5.80249 8.87112 5.80249 8.2273C5.80249 7.58349 6.05824 6.96605 6.51349 6.5108C6.96873 6.05556 7.58618 5.7998 8.22999 5.7998C8.8738 5.7998 9.49125 6.05556 9.94649 6.5108C10.4017 6.96605 10.6575 7.58349 10.6575 8.2273C10.6575 8.87112 10.4017 9.48856 9.94649 9.94381C9.49125 10.3991 8.8738 10.6548 8.22999 10.6548ZM6.13199 12.4948H10.322V25.9628H6.13199V12.4948Z" fill="#F3F3F4"/>
</svg>
