<svg width="24" height="24" viewBox="0 0 24 24" fill="none" xmlns="http://www.w3.org/2000/svg">
<g clip-path="url(#clip0_99_663)">
<path d="M5.82264 23.9999C4.28946 24 2.84158 23.3924 1.72451 22.2754C0.554839 21.1057 -0.0561291 19.5731 0.00405827 17.9599C0.0662613 16.2938 0.818932 14.6934 2.18074 13.3316L4.63267 10.8697C4.99802 10.5028 5.59159 10.5015 5.95848 10.8669C6.32533 11.2323 6.32659 11.8259 5.9612 12.1927L3.50796 14.6561C1.51995 16.6441 1.33235 19.2315 3.05041 20.9496C4.76852 22.6678 7.35597 22.4801 9.34252 20.4934L12.7122 17.1237C13.7336 16.1024 14.2968 14.9362 14.341 13.7513C14.3816 12.6652 13.9651 11.6283 13.1685 10.8316C12.9015 10.5647 12.6061 10.3382 12.2905 10.1584C11.8406 9.90215 11.6836 9.32967 11.9399 8.87981C12.1962 8.42991 12.7687 8.27297 13.2185 8.52919C13.6797 8.79187 14.1089 9.12047 14.4943 9.50583C15.664 10.6755 16.2749 12.2081 16.2148 13.8213C16.1526 15.4873 15.3999 17.0878 14.0381 18.4496L10.6684 21.8193C9.30652 23.1811 7.70612 23.9337 6.04005 23.996C5.96748 23.9986 5.89488 23.9999 5.82264 23.9999ZM12.0602 15.1201C12.3165 14.6702 12.1594 14.0977 11.7096 13.8415C11.394 13.6618 11.0986 13.4353 10.8316 13.1684C9.11359 11.4503 9.30118 8.86284 11.2878 6.87619L14.6575 3.50654C16.6442 1.51993 19.2316 1.33229 20.9496 3.05035C22.6677 4.76841 22.4801 7.35586 20.4921 9.34387L18.0389 11.8072C17.6735 12.174 17.6747 12.7677 18.0416 13.133C18.4084 13.4984 19.002 13.4971 19.3674 13.1303L21.8193 10.6683C23.1811 9.30651 23.9337 7.70606 23.996 6.04004C24.0562 4.42684 23.4452 2.89421 22.2755 1.72454C21.1058 0.554827 19.5725 -0.0560469 17.9601 0.00404674C16.294 0.0662497 14.6935 0.81892 13.3318 2.18073L9.96202 5.55038C8.60021 6.91219 7.84759 8.51264 7.78534 10.1787C7.72515 11.7919 8.33612 13.3245 9.50579 14.4942C9.89115 14.8795 10.3204 15.2081 10.7816 15.4708C10.928 15.5542 11.0874 15.5938 11.2447 15.5938C11.5706 15.5938 11.8873 15.4235 12.0602 15.1201Z" fill="white"/>
</g>
<defs>
<clipPath id="clip0_99_663">
<rect width="24" height="24" fill="white"/>
</clipPath>
</defs>
</svg>
