<svg width="32" height="32" viewBox="0 0 32 32" fill="none" xmlns="http://www.w3.org/2000/svg">
<path fill-rule="evenodd" clip-rule="evenodd" d="M27.996 10.1161C27.186 10.4761 26.316 10.7181 25.404 10.8261C26.3462 10.2623 27.0513 9.37523 27.388 8.33011C26.5021 8.8558 25.5328 9.22613 24.522 9.42511C23.8428 8.69837 22.9425 8.2164 21.9611 8.05412C20.9797 7.89184 19.9722 8.05835 19.0952 8.52776C18.2182 8.99716 17.5208 9.74317 17.1115 10.6498C16.7023 11.5564 16.604 12.5729 16.832 13.5411C15.0379 13.4512 13.2828 12.985 11.6806 12.1727C10.0784 11.3604 8.66491 10.2202 7.532 8.82611C7.13 9.51499 6.91876 10.2985 6.92 11.0961C6.91956 11.839 7.10263 12.5704 7.45294 13.2255C7.80324 13.8806 8.30994 14.439 8.928 14.8511C8.21144 14.8288 7.51061 14.6354 6.884 14.2871V14.3441C6.88409 15.3861 7.24461 16.396 7.90441 17.2026C8.5642 18.0091 9.48266 18.5626 10.504 18.7691C9.83877 18.95 9.14097 18.9764 8.464 18.8461C8.75229 19.743 9.31381 20.5274 10.07 21.0893C10.8261 21.6513 11.7391 21.9627 12.681 21.9801C11.0824 23.2339 9.10862 23.9137 7.077 23.9101C6.71713 23.9112 6.35751 23.8912 6 23.8501C8.06355 25.176 10.4652 25.8797 12.918 25.8771C21.218 25.8771 25.758 19.0011 25.758 13.0371C25.758 12.8421 25.753 12.6471 25.744 12.4541C26.6275 11.8155 27.3901 11.0244 27.996 10.1181" fill="#F3F3F4"/>
</svg>
